<?xml version="1.0" standalone="no"?><svg xmlns:xlink="http://www.w3.org/1999/xlink" xmlns="http://www.w3.org/2000/svg" viewBox="0 0 1920 1280" preserveAspectRatio="xMaxYMax slice"><g transform="scale(2.591093117408907)"><rect x="0" y="0" width="741" height="494" fill="#ffffff"/><rect x="197.6" y="98.8" width="49.4" height="49.4" fill="#ffffff"/><rect x="222.3" y="98.8" width="24.7" height="24.7" fill="#77a0ff"/><rect x="395.2" y="98.8" width="49.4" height="49.4" fill="#ffffff"/><rect x="419.9" y="123.5" width="24.7" height="24.7" fill="#7aa2ff"/><rect x="494" y="98.8" width="49.4" height="49.4" fill="#ffffff"/><rect x="592.8" y="98.8" width="49.4" height="49.4" fill="#ffffff"/><rect x="592.8" y="98.8" width="24.7" height="24.7" fill="#23dfdf"/><rect x="617.5" y="123.5" width="24.7" height="24.7" fill="#56e7e7"/><rect x="642.1999999999999" y="98.8" width="49.4" height="49.4" fill="#ffffff"/><rect x="642.2" y="98.8" width="24.7" height="24.7" fill="#5773e9"/><rect x="691.6" y="98.8" width="49.4" height="49.4" fill="#ffffff"/><rect x="716.3" y="98.8" width="24.7" height="24.7" fill="#51e6e6"/><rect x="247" y="148.2" width="49.4" height="49.4" fill="#ffffff"/><rect x="247" y="148.2" width="24.7" height="24.7" fill="#e4fbfb"/><rect x="543.4" y="148.2" width="49.4" height="49.4" fill="#ffffff"/><rect x="691.6" y="148.2" width="49.4" height="49.4" fill="#ffffff"/><rect x="691.6" y="148.2" width="24.7" height="24.7" fill="#94f0f0"/><rect x="716.3" y="148.2" width="24.7" height="24.7" fill="#3ee3e3"/><rect x="691.6" y="172.9" width="24.7" height="24.7" fill="#879bef"/><rect x="0" y="197.6" width="49.4" height="49.4" fill="#ffffff"/><rect x="0" y="222.3" width="24.7" height="24.7" fill="#ebeefc"/><rect x="296.4" y="197.6" width="49.4" height="49.4" fill="#ffffff"/><rect x="296.4" y="197.6" width="24.7" height="24.7" fill="#e1fbfb"/><rect x="296.4" y="222.3" width="24.7" height="24.7" fill="#2e52e4"/><rect x="321.1" y="222.3" width="24.7" height="24.7" fill="#eef1fd"/><rect x="395.2" y="197.6" width="49.4" height="49.4" fill="#ffffff"/><rect x="395.2" y="222.3" width="24.7" height="24.7" fill="#aac3ff"/><rect x="494" y="197.6" width="49.4" height="49.4" fill="#ffffff"/><rect x="494" y="197.6" width="24.7" height="24.7" fill="#c2d4ff"/><rect x="518.7" y="197.6" width="24.7" height="24.7" fill="#3974ff"/><rect x="518.7" y="222.3" width="24.7" height="24.7" fill="#4be5e5"/><rect x="592.8" y="197.6" width="49.4" height="49.4" fill="#ffffff"/><rect x="592.8" y="197.6" width="24.7" height="24.7" fill="#b8c4f6"/><rect x="617.5" y="197.6" width="24.7" height="24.7" fill="#264ae3"/><rect x="642.1999999999999" y="197.6" width="49.4" height="49.4" fill="#ffffff"/><rect x="642.2" y="197.6" width="24.7" height="24.7" fill="#8297ef"/><rect x="0" y="247" width="49.4" height="49.4" fill="#ffffff"/><rect x="0" y="247" width="24.7" height="24.7" fill="#4161e6"/><rect x="24.7" y="247" width="24.7" height="24.7" fill="#61e8e8"/><rect x="24.7" y="271.7" width="24.7" height="24.7" fill="#1a41e1"/><rect x="49.4" y="247" width="49.4" height="49.4" fill="#ffffff"/><rect x="49.4" y="247" width="24.7" height="24.7" fill="#2be1e1"/><rect x="247" y="247" width="49.4" height="49.4" fill="#ffffff"/><rect x="247" y="247" width="24.7" height="24.7" fill="#a6b5f3"/><rect x="271.7" y="247" width="24.7" height="24.7" fill="#f4fdfd"/><rect x="271.7" y="271.7" width="24.7" height="24.7" fill="#73ebeb"/><rect x="444.59999999999997" y="247" width="49.4" height="49.4" fill="#ffffff"/><rect x="444.6" y="247" width="24.7" height="24.7" fill="#5286ff"/><rect x="469.3" y="271.7" width="24.7" height="24.7" fill="#4968e7"/><rect x="494" y="247" width="49.4" height="49.4" fill="#ffffff"/><rect x="494" y="247" width="24.7" height="24.7" fill="#788fed"/><rect x="494" y="271.7" width="24.7" height="24.7" fill="#ffffff"/><rect x="518.7" y="271.7" width="24.7" height="24.7" fill="#758ced"/><rect x="592.8" y="247" width="49.4" height="49.4" fill="#ffffff"/><rect x="617.5" y="247" width="24.7" height="24.7" fill="#e4e9fc"/><rect x="642.1999999999999" y="247" width="49.4" height="49.4" fill="#ffffff"/><rect x="642.2" y="247" width="24.7" height="24.7" fill="#5a8bff"/><rect x="691.6" y="247" width="49.4" height="49.4" fill="#ffffff"/><rect x="691.6" y="247" width="24.7" height="24.7" fill="#fcffff"/><rect x="691.6" y="271.7" width="24.7" height="24.7" fill="#f4f6fe"/><rect x="0" y="296.4" width="49.4" height="49.4" fill="#ffffff"/><rect x="0" y="296.4" width="24.7" height="24.7" fill="#8dafff"/><rect x="24.7" y="296.4" width="24.7" height="24.7" fill="#fdffff"/><rect x="0" y="321.1" width="24.7" height="24.7" fill="#f6fefe"/><rect x="24.7" y="321.1" width="24.7" height="24.7" fill="#d2dfff"/><rect x="49.4" y="296.4" width="49.4" height="49.4" fill="#ffffff"/><rect x="74.1" y="296.4" width="24.7" height="24.7" fill="#c3cdf7"/><rect x="49.4" y="321.1" width="24.7" height="24.7" fill="#6e87ec"/><rect x="74.1" y="321.1" width="24.7" height="24.7" fill="#3355e4"/><rect x="98.8" y="296.4" width="49.4" height="49.4" fill="#ffffff"/><rect x="98.8" y="296.4" width="24.7" height="24.7" fill="#e7eeff"/><rect x="123.5" y="296.4" width="24.7" height="24.7" fill="#ccd5f8"/><rect x="123.5" y="321.1" width="24.7" height="24.7" fill="#21dfdf"/><rect x="148.2" y="296.4" width="49.4" height="49.4" fill="#ffffff"/><rect x="172.9" y="296.4" width="24.7" height="24.7" fill="#e4ecff"/><rect x="148.2" y="321.1" width="24.7" height="24.7" fill="#2f52e4"/><rect x="172.9" y="321.1" width="24.7" height="24.7" fill="#7e94ee"/><rect x="197.6" y="296.4" width="49.4" height="49.4" fill="#ffffff"/><rect x="197.6" y="296.4" width="24.7" height="24.7" fill="#b0f4f4"/><rect x="222.3" y="321.1" width="24.7" height="24.7" fill="#c1f6f6"/><rect x="247" y="296.4" width="49.4" height="49.4" fill="#ffffff"/><rect x="271.7" y="296.4" width="24.7" height="24.7" fill="#86eeee"/><rect x="271.7" y="321.1" width="24.7" height="24.7" fill="#3457e5"/><rect x="345.8" y="296.4" width="49.4" height="49.4" fill="#ffffff"/><rect x="345.8" y="296.4" width="24.7" height="24.7" fill="#7aa2ff"/><rect x="370.5" y="296.4" width="24.7" height="24.7" fill="#617ceb"/><rect x="345.8" y="321.1" width="24.7" height="24.7" fill="#f6fefe"/><rect x="395.2" y="296.4" width="49.4" height="49.4" fill="#ffffff"/><rect x="395.2" y="296.4" width="24.7" height="24.7" fill="#30e1e1"/><rect x="419.9" y="296.4" width="24.7" height="24.7" fill="#95a7f1"/><rect x="395.2" y="321.1" width="24.7" height="24.7" fill="#edf3ff"/><rect x="444.59999999999997" y="296.4" width="49.4" height="49.4" fill="#ffffff"/><rect x="444.6" y="296.4" width="24.7" height="24.7" fill="#b7c3f6"/><rect x="469.3" y="296.4" width="24.7" height="24.7" fill="#47e5e5"/><rect x="444.6" y="321.1" width="24.7" height="24.7" fill="#40e4e4"/><rect x="469.3" y="321.1" width="24.7" height="24.7" fill="#d4dbf9"/><rect x="543.4" y="296.4" width="49.4" height="49.4" fill="#ffffff"/><rect x="568.1" y="321.1" width="24.7" height="24.7" fill="#d0d8f9"/><rect x="642.1999999999999" y="296.4" width="49.4" height="49.4" fill="#ffffff"/><rect x="642.2" y="296.4" width="24.7" height="24.7" fill="#254ae3"/><rect x="666.9" y="296.4" width="24.7" height="24.7" fill="#f2f6ff"/><rect x="642.2" y="321.1" width="24.7" height="24.7" fill="#23dfdf"/><rect x="666.9" y="321.1" width="24.7" height="24.7" fill="#d2f8f8"/><rect x="691.6" y="296.4" width="49.4" height="49.4" fill="#ffffff"/><rect x="716.3" y="296.4" width="24.7" height="24.7" fill="#68e9e9"/><rect x="691.6" y="321.1" width="24.7" height="24.7" fill="#e3fbfb"/><rect x="716.3" y="321.1" width="24.7" height="24.7" fill="#f3f7ff"/><rect x="0" y="345.8" width="49.4" height="49.4" fill="#ffffff"/><rect x="24.7" y="345.8" width="24.7" height="24.7" fill="#81a7ff"/><rect x="24.7" y="370.5" width="24.7" height="24.7" fill="#22dfdf"/><rect x="49.4" y="345.8" width="49.4" height="49.4" fill="#ffffff"/><rect x="49.4" y="345.8" width="24.7" height="24.7" fill="#6694ff"/><rect x="74.1" y="345.8" width="24.7" height="24.7" fill="#44e4e4"/><rect x="49.4" y="370.5" width="24.7" height="24.7" fill="#1d43e2"/><rect x="74.1" y="370.5" width="24.7" height="24.7" fill="#edf2ff"/><rect x="98.8" y="345.8" width="49.4" height="49.4" fill="#ffffff"/><rect x="98.8" y="345.8" width="24.7" height="24.7" fill="#e5edff"/><rect x="123.5" y="345.8" width="24.7" height="24.7" fill="#385ae5"/><rect x="98.8" y="370.5" width="24.7" height="24.7" fill="#3471ff"/><rect x="123.5" y="370.5" width="24.7" height="24.7" fill="#3557e5"/><rect x="148.2" y="345.8" width="49.4" height="49.4" fill="#ffffff"/><rect x="148.2" y="345.8" width="24.7" height="24.7" fill="#fcffff"/><rect x="172.9" y="345.8" width="24.7" height="24.7" fill="#8baeff"/><rect x="148.2" y="370.5" width="24.7" height="24.7" fill="#6492ff"/><rect x="172.9" y="370.5" width="24.7" height="24.7" fill="#4ee6e6"/><rect x="247" y="345.8" width="49.4" height="49.4" fill="#ffffff"/><rect x="247" y="345.8" width="24.7" height="24.7" fill="#8defef"/><rect x="247" y="370.5" width="24.7" height="24.7" fill="#f3fdfd"/><rect x="271.7" y="370.5" width="24.7" height="24.7" fill="#dde3fb"/><rect x="296.4" y="345.8" width="49.4" height="49.4" fill="#ffffff"/><rect x="296.4" y="345.8" width="24.7" height="24.7" fill="#5b77ea"/><rect x="321.1" y="345.8" width="24.7" height="24.7" fill="#4d6be8"/><rect x="296.4" y="370.5" width="24.7" height="24.7" fill="#8a9ef0"/><rect x="345.8" y="345.8" width="49.4" height="49.4" fill="#ffffff"/><rect x="345.8" y="345.8" width="24.7" height="24.7" fill="#49e5e5"/><rect x="370.5" y="345.8" width="24.7" height="24.7" fill="#b1bef5"/><rect x="345.8" y="370.5" width="24.7" height="24.7" fill="#dae0fa"/><rect x="370.5" y="370.5" width="24.7" height="24.7" fill="#8096ef"/><rect x="395.2" y="345.8" width="49.4" height="49.4" fill="#ffffff"/><rect x="395.2" y="345.8" width="24.7" height="24.7" fill="#8aeeee"/><rect x="419.9" y="345.8" width="24.7" height="24.7" fill="#768ded"/><rect x="419.9" y="370.5" width="24.7" height="24.7" fill="#d9f9f9"/><rect x="444.59999999999997" y="345.8" width="49.4" height="49.4" fill="#ffffff"/><rect x="444.6" y="345.8" width="24.7" height="24.7" fill="#dfe8ff"/><rect x="444.6" y="370.5" width="24.7" height="24.7" fill="#91b2ff"/><rect x="469.3" y="370.5" width="24.7" height="24.7" fill="#bdf5f5"/><rect x="494" y="345.8" width="49.4" height="49.4" fill="#ffffff"/><rect x="494" y="345.8" width="24.7" height="24.7" fill="#a4b4f3"/><rect x="518.7" y="345.8" width="24.7" height="24.7" fill="#3571ff"/><rect x="494" y="370.5" width="24.7" height="24.7" fill="#b4c1f5"/><rect x="518.7" y="370.5" width="24.7" height="24.7" fill="#9fbcff"/><rect x="543.4" y="345.8" width="49.4" height="49.4" fill="#ffffff"/><rect x="568.1" y="345.8" width="24.7" height="24.7" fill="#e5fbfb"/><rect x="543.4" y="370.5" width="24.7" height="24.7" fill="#ecfcfc"/><rect x="568.1" y="370.5" width="24.7" height="24.7" fill="#c9f7f7"/><rect x="592.8" y="345.8" width="49.4" height="49.4" fill="#ffffff"/><rect x="592.8" y="345.8" width="24.7" height="24.7" fill="#c4f7f7"/><rect x="617.5" y="345.8" width="24.7" height="24.7" fill="#fbfcff"/><rect x="592.8" y="370.5" width="24.7" height="24.7" fill="#a0b0f3"/><rect x="617.5" y="370.5" width="24.7" height="24.7" fill="#254ae3"/><rect x="642.1999999999999" y="345.8" width="49.4" height="49.4" fill="#ffffff"/><rect x="642.2" y="345.8" width="24.7" height="24.7" fill="#749eff"/><rect x="642.2" y="370.5" width="24.7" height="24.7" fill="#5b8cff"/><rect x="666.9" y="370.5" width="24.7" height="24.7" fill="#cff8f8"/><rect x="691.6" y="345.8" width="49.4" height="49.4" fill="#ffffff"/><rect x="691.6" y="345.8" width="24.7" height="24.7" fill="#2c50e4"/><rect x="716.3" y="345.8" width="24.7" height="24.7" fill="#8fefef"/><rect x="691.6" y="370.5" width="24.7" height="24.7" fill="#8fb1ff"/><rect x="716.3" y="370.5" width="24.7" height="24.7" fill="#5b8cff"/><rect x="0" y="395.2" width="49.4" height="49.4" fill="#ffffff"/><rect x="0" y="395.2" width="24.7" height="24.7" fill="#abc4ff"/><rect x="24.7" y="395.2" width="24.7" height="24.7" fill="#e9edfc"/><rect x="0" y="419.9" width="24.7" height="24.7" fill="#6493ff"/><rect x="24.7" y="419.9" width="24.7" height="24.7" fill="#769fff"/><rect x="49.4" y="395.2" width="49.4" height="49.4" fill="#ffffff"/><rect x="49.4" y="395.2" width="24.7" height="24.7" fill="#3f78ff"/><rect x="74.1" y="395.2" width="24.7" height="24.7" fill="#60e8e8"/><rect x="49.4" y="419.9" width="24.7" height="24.7" fill="#1e44e2"/><rect x="74.1" y="419.9" width="24.7" height="24.7" fill="#b4c0f5"/><rect x="98.8" y="395.2" width="49.4" height="49.4" fill="#ffffff"/><rect x="98.8" y="395.2" width="24.7" height="24.7" fill="#5a8bff"/><rect x="123.5" y="395.2" width="24.7" height="24.7" fill="#264ae3"/><rect x="98.8" y="419.9" width="24.7" height="24.7" fill="#5e8eff"/><rect x="123.5" y="419.9" width="24.7" height="24.7" fill="#fbfefe"/><rect x="148.2" y="395.2" width="49.4" height="49.4" fill="#ffffff"/><rect x="148.2" y="395.2" width="24.7" height="24.7" fill="#cad3f8"/><rect x="172.9" y="395.2" width="24.7" height="24.7" fill="#2d50e4"/><rect x="148.2" y="419.9" width="24.7" height="24.7" fill="#b8f5f5"/><rect x="172.9" y="419.9" width="24.7" height="24.7" fill="#f1f4fd"/><rect x="197.6" y="395.2" width="49.4" height="49.4" fill="#ffffff"/><rect x="197.6" y="395.2" width="24.7" height="24.7" fill="#36e2e2"/><rect x="222.3" y="395.2" width="24.7" height="24.7" fill="#34e2e2"/><rect x="197.6" y="419.9" width="24.7" height="24.7" fill="#7aa2ff"/><rect x="222.3" y="419.9" width="24.7" height="24.7" fill="#c2ccf7"/><rect x="247" y="395.2" width="49.4" height="49.4" fill="#ffffff"/><rect x="247" y="395.2" width="24.7" height="24.7" fill="#fcfdff"/><rect x="271.7" y="395.2" width="24.7" height="24.7" fill="#f9fbff"/><rect x="247" y="419.9" width="24.7" height="24.7" fill="#aebcf5"/><rect x="271.7" y="419.9" width="24.7" height="24.7" fill="#dbe1fa"/><rect x="296.4" y="395.2" width="49.4" height="49.4" fill="#ffffff"/><rect x="296.4" y="395.2" width="24.7" height="24.7" fill="#31e1e1"/><rect x="321.1" y="395.2" width="24.7" height="24.7" fill="#c9d9ff"/><rect x="296.4" y="419.9" width="24.7" height="24.7" fill="#96b5ff"/><rect x="321.1" y="419.9" width="24.7" height="24.7" fill="#5588ff"/><rect x="345.8" y="395.2" width="49.4" height="49.4" fill="#ffffff"/><rect x="345.8" y="395.2" width="24.7" height="24.7" fill="#95b5ff"/><rect x="370.5" y="395.2" width="24.7" height="24.7" fill="#f2f4fd"/><rect x="345.8" y="419.9" width="24.7" height="24.7" fill="#b7cdff"/><rect x="370.5" y="419.9" width="24.7" height="24.7" fill="#d7e3ff"/><rect x="395.2" y="395.2" width="49.4" height="49.4" fill="#ffffff"/><rect x="395.2" y="395.2" width="24.7" height="24.7" fill="#ceddff"/><rect x="419.9" y="395.2" width="24.7" height="24.7" fill="#2c50e4"/><rect x="395.2" y="419.9" width="24.7" height="24.7" fill="#3773ff"/><rect x="419.9" y="419.9" width="24.7" height="24.7" fill="#1d43e2"/><rect x="444.59999999999997" y="395.2" width="49.4" height="49.4" fill="#ffffff"/><rect x="444.6" y="395.2" width="24.7" height="24.7" fill="#8fa2f0"/><rect x="469.3" y="395.2" width="24.7" height="24.7" fill="#a2f2f2"/><rect x="444.6" y="419.9" width="24.7" height="24.7" fill="#90efef"/><rect x="469.3" y="419.9" width="24.7" height="24.7" fill="#f4f7ff"/><rect x="494" y="395.2" width="49.4" height="49.4" fill="#ffffff"/><rect x="494" y="395.2" width="24.7" height="24.7" fill="#f8faff"/><rect x="518.7" y="395.2" width="24.7" height="24.7" fill="#93f0f0"/><rect x="494" y="419.9" width="24.7" height="24.7" fill="#bff6f6"/><rect x="592.8" y="395.2" width="49.4" height="49.4" fill="#ffffff"/><rect x="592.8" y="395.2" width="24.7" height="24.7" fill="#a9b8f4"/><rect x="617.5" y="395.2" width="24.7" height="24.7" fill="#9df1f1"/><rect x="592.8" y="419.9" width="24.7" height="24.7" fill="#5471e9"/><rect x="617.5" y="419.9" width="24.7" height="24.7" fill="#5f8fff"/><rect x="642.1999999999999" y="395.2" width="49.4" height="49.4" fill="#ffffff"/><rect x="642.2" y="395.2" width="24.7" height="24.7" fill="#92b3ff"/><rect x="666.9" y="395.2" width="24.7" height="24.7" fill="#41e4e4"/><rect x="642.2" y="419.9" width="24.7" height="24.7" fill="#5b77ea"/><rect x="666.9" y="419.9" width="24.7" height="24.7" fill="#cbd4f8"/><rect x="691.6" y="395.2" width="49.4" height="49.4" fill="#ffffff"/><rect x="691.6" y="395.2" width="24.7" height="24.7" fill="#3d77ff"/><rect x="716.3" y="395.2" width="24.7" height="24.7" fill="#5370e9"/><rect x="691.6" y="419.9" width="24.7" height="24.7" fill="#90b1ff"/><rect x="716.3" y="419.9" width="24.7" height="24.7" fill="#f9fbff"/><rect x="0" y="444.59999999999997" width="49.4" height="49.4" fill="#ffffff"/><rect x="0" y="444.6" width="24.7" height="24.7" fill="#4464e7"/><rect x="24.7" y="444.6" width="24.7" height="24.7" fill="#4564e7"/><rect x="0" y="469.3" width="24.7" height="24.7" fill="#3e5ee6"/><rect x="24.7" y="469.3" width="24.7" height="24.7" fill="#6ceaea"/><rect x="49.4" y="444.59999999999997" width="49.4" height="49.4" fill="#ffffff"/><rect x="49.4" y="444.6" width="24.7" height="24.7" fill="#7b91ee"/><rect x="74.1" y="444.6" width="24.7" height="24.7" fill="#82eded"/><rect x="49.4" y="469.3" width="24.7" height="24.7" fill="#aac3ff"/><rect x="74.1" y="469.3" width="24.7" height="24.7" fill="#dbe6ff"/><rect x="98.8" y="444.59999999999997" width="49.4" height="49.4" fill="#ffffff"/><rect x="98.8" y="444.6" width="24.7" height="24.7" fill="#3b5ce6"/><rect x="123.5" y="444.6" width="24.7" height="24.7" fill="#9af1f1"/><rect x="98.8" y="469.3" width="24.7" height="24.7" fill="#88abff"/><rect x="123.5" y="469.3" width="24.7" height="24.7" fill="#5370e9"/><rect x="148.2" y="444.59999999999997" width="49.4" height="49.4" fill="#ffffff"/><rect x="148.2" y="444.6" width="24.7" height="24.7" fill="#b3caff"/><rect x="172.9" y="444.6" width="24.7" height="24.7" fill="#7c92ee"/><rect x="148.2" y="469.3" width="24.7" height="24.7" fill="#bef6f6"/><rect x="172.9" y="469.3" width="24.7" height="24.7" fill="#1f45e2"/><rect x="197.6" y="444.59999999999997" width="49.4" height="49.4" fill="#ffffff"/><rect x="197.6" y="444.6" width="24.7" height="24.7" fill="#86eeee"/><rect x="222.3" y="444.6" width="24.7" height="24.7" fill="#abb9f4"/><rect x="197.6" y="469.3" width="24.7" height="24.7" fill="#b0f4f4"/><rect x="222.3" y="469.3" width="24.7" height="24.7" fill="#f1fdfd"/><rect x="247" y="444.59999999999997" width="49.4" height="49.4" fill="#ffffff"/><rect x="247" y="444.6" width="24.7" height="24.7" fill="#6d86ec"/><rect x="271.7" y="444.6" width="24.7" height="24.7" fill="#bcd0ff"/><rect x="247" y="469.3" width="24.7" height="24.7" fill="#c8d8ff"/><rect x="271.7" y="469.3" width="24.7" height="24.7" fill="#aebcf4"/><rect x="296.4" y="444.59999999999997" width="49.4" height="49.4" fill="#ffffff"/><rect x="296.4" y="444.6" width="24.7" height="24.7" fill="#94a6f1"/><rect x="321.1" y="444.6" width="24.7" height="24.7" fill="#fdffff"/><rect x="296.4" y="469.3" width="24.7" height="24.7" fill="#c1d4ff"/><rect x="321.1" y="469.3" width="24.7" height="24.7" fill="#7ba3ff"/><rect x="345.8" y="444.59999999999997" width="49.4" height="49.4" fill="#ffffff"/><rect x="345.8" y="444.6" width="24.7" height="24.7" fill="#3f78ff"/><rect x="370.5" y="444.6" width="24.7" height="24.7" fill="#8dafff"/><rect x="345.8" y="469.3" width="24.7" height="24.7" fill="#e0e5fb"/><rect x="370.5" y="469.3" width="24.7" height="24.7" fill="#8cefef"/><rect x="395.2" y="444.59999999999997" width="49.4" height="49.4" fill="#ffffff"/><rect x="395.2" y="444.6" width="24.7" height="24.7" fill="#38e2e2"/><rect x="419.9" y="444.6" width="24.7" height="24.7" fill="#c6f7f7"/><rect x="395.2" y="469.3" width="24.7" height="24.7" fill="#264ae3"/><rect x="419.9" y="469.3" width="24.7" height="24.7" fill="#bfc9f7"/><rect x="444.59999999999997" y="444.59999999999997" width="49.4" height="49.4" fill="#ffffff"/><rect x="444.6" y="444.6" width="24.7" height="24.7" fill="#f3fdfd"/><rect x="469.3" y="444.6" width="24.7" height="24.7" fill="#294de3"/><rect x="444.6" y="469.3" width="24.7" height="24.7" fill="#5d8dff"/><rect x="469.3" y="469.3" width="24.7" height="24.7" fill="#6d86ec"/><rect x="494" y="444.59999999999997" width="49.4" height="49.4" fill="#ffffff"/><rect x="494" y="444.6" width="24.7" height="24.7" fill="#94f0f0"/><rect x="518.7" y="444.6" width="24.7" height="24.7" fill="#4464e7"/><rect x="494" y="469.3" width="24.7" height="24.7" fill="#b3c0f5"/><rect x="518.7" y="469.3" width="24.7" height="24.7" fill="#c5d6ff"/><rect x="543.4" y="444.59999999999997" width="49.4" height="49.4" fill="#ffffff"/><rect x="543.4" y="444.6" width="24.7" height="24.7" fill="#72ebeb"/><rect x="568.1" y="444.6" width="24.7" height="24.7" fill="#abb9f4"/><rect x="543.4" y="469.3" width="24.7" height="24.7" fill="#7feded"/><rect x="568.1" y="469.3" width="24.7" height="24.7" fill="#2046e2"/><rect x="592.8" y="444.59999999999997" width="49.4" height="49.4" fill="#ffffff"/><rect x="592.8" y="444.6" width="24.7" height="24.7" fill="#eff2fd"/><rect x="617.5" y="444.6" width="24.7" height="24.7" fill="#90efef"/><rect x="592.8" y="469.3" width="24.7" height="24.7" fill="#77a0ff"/><rect x="617.5" y="469.3" width="24.7" height="24.7" fill="#6f87ec"/><rect x="642.1999999999999" y="444.59999999999997" width="49.4" height="49.4" fill="#ffffff"/><rect x="642.2" y="444.6" width="24.7" height="24.7" fill="#fdfeff"/><rect x="666.9" y="444.6" width="24.7" height="24.7" fill="#b9f5f5"/><rect x="642.2" y="469.3" width="24.7" height="24.7" fill="#93a5f1"/><rect x="666.9" y="469.3" width="24.7" height="24.7" fill="#4b81ff"/><rect x="691.6" y="444.59999999999997" width="49.4" height="49.4" fill="#ffffff"/><rect x="691.6" y="444.6" width="24.7" height="24.7" fill="#3f5fe6"/><rect x="716.3" y="444.6" width="24.7" height="24.7" fill="#467eff"/><rect x="691.6" y="469.3" width="24.7" height="24.7" fill="#d8f9f9"/><rect x="716.3" y="469.3" width="24.7" height="24.7" fill="#87eeee"/></g></svg>