<?xml version="1.0" standalone="no"?>
<!DOCTYPE svg PUBLIC "-//W3C//DTD SVG 20010904//EN"
 "http://www.w3.org/TR/2001/REC-SVG-20010904/DTD/svg10.dtd">
<svg version="1.0" xmlns="http://www.w3.org/2000/svg"
 width="192.000000pt" height="192.000000pt" viewBox="0 0 192.000000 192.000000"
 preserveAspectRatio="xMidYMid meet">
<metadata>
Created by potrace 1.14, written by Peter Selinger 2001-2017
</metadata>
<g transform="translate(0.000000,192.000000) scale(0.100000,-0.100000)"
fill="#000000" stroke="none">
<path d="M398 1272 l-58 -3 0 -340 0 -340 183 3 c168 3 186 5 231 27 66 32
106 95 106 166 0 58 -25 115 -64 146 l-26 20 31 39 c72 89 34 225 -74 264 -42
15 -211 24 -329 18z m256 -143 c32 -25 35 -70 6 -99 -16 -16 -33 -20 -95 -20
l-75 0 0 70 0 70 69 0 c54 0 74 -4 95 -21z m21 -269 c34 -32 34 -88 0 -120
-22 -21 -36 -24 -103 -25 l-77 0 -3 74 c-4 106 -5 104 83 99 61 -4 80 -9 100
-28z"/>
<path d="M1165 1266 c-96 -30 -172 -96 -214 -186 -22 -47 -26 -68 -26 -150 0
-76 5 -104 22 -142 32 -70 103 -141 176 -174 55 -26 73 -29 157 -29 82 0 103
4 150 26 119 57 189 175 190 322 l0 47 -180 0 -180 0 0 -64 0 -64 63 -6 c34
-3 77 -7 95 -9 l34 -2 -24 -34 c-34 -51 -78 -73 -147 -73 -121 -1 -201 83
-201 210 0 173 204 262 344 150 l38 -31 52 52 51 52 -43 39 c-62 56 -134 80
-235 79 -45 0 -100 -6 -122 -13z"/>
</g>
</svg>
